<svg xmlns="http://www.w3.org/2000/svg" xmlns:xlink="http://www.w3.org/1999/xlink" width="500" zoomAndPan="magnify" viewBox="0 0 375 374.999991" height="500" preserveAspectRatio="xMidYMid meet" version="1.0"><defs><g/><clipPath id="4070eed0e9"><path d="M 59 148 L 137 148 L 137 226 L 59 226 Z M 59 148 " clip-rule="nonzero"/></clipPath><clipPath id="8bc6839d63"><path d="M 135.148438 156.085938 C 135.226562 155.851562 135.203125 155.589844 135.070312 155.378906 C 134.890625 155.078125 133.445312 152.683594 133.261719 152.382812 C 133.117188 152.148438 132.871094 151.996094 132.59375 151.984375 C 132.3125 151.976562 132.046875 152.113281 131.886719 152.347656 C 131.144531 153.4375 125.203125 162.144531 124.460938 163.234375 C 120.589844 160.101562 116.957031 157.421875 115.863281 156.589844 C 115.839844 156.066406 115.652344 151.882812 115.628906 151.359375 C 115.617188 151.078125 115.464844 150.820312 115.222656 150.679688 C 114.898438 150.488281 112.296875 148.960938 111.972656 148.769531 C 111.75 148.636719 111.476562 148.617188 111.238281 148.710938 C 111 148.804688 110.816406 149.003906 110.746094 149.25 C 110.621094 149.683594 109.621094 153.136719 109.496094 153.570312 C 90.328125 146.320312 68.890625 155.921875 61.613281 175.011719 C 54.339844 194.101562 63.980469 215.453125 83.144531 222.699219 C 93.492188 226.609375 105.050781 225.71875 114.671875 220.273438 C 115.0625 220.03125 115.183594 219.519531 114.941406 219.128906 C 114.792969 218.890625 114.535156 218.742188 114.253906 218.738281 C 114.121094 218.742188 113.988281 218.773438 113.871094 218.835938 C 96.851562 228.46875 75.210938 222.53125 65.539062 205.582031 C 55.871094 188.628906 61.828125 167.078125 78.847656 157.445312 C 87.675781 152.453125 98.230469 151.464844 107.835938 154.738281 C 107.476562 154.84375 104.609375 155.660156 104.25 155.761719 C 103.808594 155.886719 103.550781 156.347656 103.679688 156.789062 C 103.699219 156.851562 103.726562 156.914062 103.757812 156.972656 C 103.953125 157.296875 105.492188 159.894531 105.683594 160.21875 C 105.828125 160.457031 106.082031 160.609375 106.359375 160.625 C 106.710938 160.640625 108.460938 160.714844 111.613281 160.851562 C 112.003906 161.347656 112.21875 161.625 112.261719 161.679688 C 113.453125 163.273438 115.722656 166.246094 118.273438 169.378906 C 118.121094 169.480469 116.90625 170.320312 116.757812 170.421875 C 111.609375 164.519531 104.148438 161.128906 96.296875 161.125 C 92.03125 161.109375 87.816406 162.109375 84.019531 164.046875 C 74.894531 168.632812 69.152344 177.949219 69.171875 188.125 C 69.171875 188.566406 69.171875 189.003906 69.171875 189.453125 C 69.238281 190.644531 69.386719 191.828125 69.613281 193 C 72.1875 206.976562 85.195312 216.582031 99.375 214.96875 C 104.738281 214.375 109.796875 212.175781 113.878906 208.65625 C 119.902344 203.523438 123.386719 196.035156 123.425781 188.140625 C 123.429688 184.144531 122.539062 180.199219 120.816406 176.59375 C 121.09375 176.492188 123.308594 175.710938 123.582031 175.613281 C 124.277344 176.367188 124.867188 176.980469 125.417969 177.53125 C 128.753906 180.851562 131.453125 181.679688 133.269531 181.679688 C 134.1875 181.714844 135.089844 181.480469 135.871094 181 C 135.949219 180.949219 136.015625 180.882812 136.070312 180.808594 C 136.1875 180.644531 138.90625 176.660156 132.613281 170.398438 C 132.070312 169.824219 131.445312 169.234375 130.6875 168.539062 C 131.578125 166.046875 134.699219 157.328125 135.148438 156.085938 Z M 84.078125 165.898438 C 85.464844 168.417969 87.65625 170.40625 90.304688 171.542969 C 93.996094 173.011719 96.75 175.652344 96.75 177.820312 C 96.75 178.984375 95.996094 179.914062 94.457031 180.59375 C 92.722656 181.355469 90.828125 181.6875 88.9375 181.566406 C 86.390625 181.34375 83.863281 182.125 81.890625 183.742188 C 80.898438 184.496094 79.792969 185.449219 78.632812 186.464844 C 76.207031 188.566406 73.253906 191.113281 71.128906 191.851562 C 70.941406 190.625 70.84375 189.382812 70.839844 188.140625 C 70.808594 178.867188 75.894531 170.324219 84.078125 165.898438 Z M 81.359375 208.683594 C 81.769531 207.695312 82.011719 206.644531 82.074219 205.578125 C 82.292969 202.3125 82.574219 198.253906 83.492188 197.773438 C 83.742188 197.640625 84.242188 197.773438 84.910156 198.171875 C 86.246094 198.882812 87.777344 199.152344 89.277344 198.941406 C 91.097656 198.859375 92.40625 198.792969 93.664062 201 C 95.472656 204.171875 97.390625 204.207031 98.933594 204.238281 C 99.65625 204.160156 100.390625 204.332031 101 204.730469 C 102.449219 205.851562 105.34375 208.558594 106.667969 211.304688 C 103.40625 212.761719 99.871094 213.507812 96.296875 213.496094 C 90.929688 213.511719 85.699219 211.824219 81.359375 208.683594 Z M 108.152344 210.558594 C 106.621094 207.785156 104.535156 205.351562 102.023438 203.410156 C 101.132812 202.785156 100.046875 202.492188 98.957031 202.578125 C 97.558594 202.578125 96.457031 202.53125 95.113281 200.179688 C 93.355469 197.082031 91.144531 197.191406 89.195312 197.28125 C 88.023438 197.460938 86.824219 197.277344 85.761719 196.75 C 85.308594 196.476562 83.925781 195.664062 82.71875 196.300781 C 81.050781 197.175781 80.773438 200.046875 80.410156 205.433594 C 80.363281 206.164062 80.214844 206.882812 79.976562 207.570312 C 75.617188 203.949219 72.605469 198.980469 71.414062 193.453125 C 73.914062 192.699219 76.855469 190.132812 79.75 187.644531 C 80.890625 186.648438 81.976562 185.707031 82.933594 184.984375 C 84.601562 183.585938 86.773438 182.921875 88.945312 183.152344 C 91.074219 183.277344 93.203125 182.894531 95.15625 182.039062 C 98.03125 180.835938 98.414062 178.882812 98.414062 177.789062 C 98.367188 174.890625 95.347656 171.761719 90.914062 170 C 88.644531 169.011719 86.765625 167.304688 85.570312 165.152344 C 88.921875 163.582031 92.585938 162.773438 96.289062 162.785156 C 103.589844 162.78125 110.539062 165.90625 115.363281 171.363281 C 114.558594 171.90625 108.132812 176.238281 107.328125 176.78125 C 106.9375 177.027344 106.820312 177.542969 107.070312 177.929688 C 107.132812 178.03125 107.222656 178.121094 107.328125 178.1875 C 107.347656 178.199219 107.453125 178.261719 107.644531 178.378906 C 107.515625 178.496094 107.441406 178.5625 107.425781 178.578125 C 106.304688 179.527344 104.996094 180.234375 103.585938 180.660156 C 101.324219 181.492188 98.773438 182.480469 98.257812 185.640625 C 97.738281 188.804688 99.539062 189.097656 100.976562 189.402344 C 102.617188 189.585938 104.070312 190.539062 104.882812 191.96875 C 105.933594 193.738281 105.492188 195.074219 105.078125 196.367188 C 104.769531 197.324219 104.441406 198.3125 104.96875 199.242188 C 105.492188 200.171875 106.417969 200.59375 108.1875 201.011719 C 108.828125 201.164062 109.484375 201.242188 110.144531 201.242188 C 113.085938 201.257812 115.792969 199.664062 117.199219 197.089844 C 118.363281 195.03125 117.878906 192.433594 116.046875 190.929688 C 116.046875 190.929688 114.636719 189.636719 114.15625 184.863281 C 114.007812 182.992188 113.527344 181.167969 112.738281 179.464844 C 113.390625 179.234375 118.605469 177.386719 119.257812 177.15625 C 120.914062 180.582031 121.769531 184.339844 121.757812 188.140625 C 121.710938 197.535156 116.484375 206.148438 108.152344 210.558594 Z M 101.351562 187.800781 C 99.933594 187.492188 99.683594 187.433594 99.925781 185.925781 C 100.28125 183.796875 101.75 183.125 104.25 182.203125 C 105.890625 181.703125 107.402344 180.855469 108.679688 179.714844 C 108.847656 179.546875 109.035156 179.394531 109.238281 179.257812 C 109.351562 179.328125 110.273438 179.886719 110.386719 179.953125 C 110.605469 180.085938 110.867188 180.105469 111.105469 180.019531 C 111.117188 180.019531 111.203125 180.019531 111.210938 180.019531 C 112.007812 181.570312 112.472656 183.265625 112.570312 185.003906 C 113.105469 190.28125 114.714844 191.894531 115.070312 192.167969 C 116.3125 193.179688 116.628906 194.941406 115.8125 196.320312 C 114.398438 198.824219 111.480469 200.082031 108.679688 199.390625 C 107.078125 199.015625 106.644531 198.628906 106.527344 198.429688 C 106.410156 198.230469 106.527344 197.597656 106.769531 196.882812 C 107.152344 195.488281 107.785156 193.539062 106.351562 191.121094 C 105.292969 189.300781 103.445312 188.070312 101.351562 187.800781 Z M 126.59375 176.394531 C 125.976562 175.769531 125.285156 175.046875 124.433594 174.117188 C 124.277344 173.945312 124.050781 173.851562 123.816406 173.851562 C 123.722656 173.855469 123.628906 173.871094 123.542969 173.902344 C 122.695312 174.199219 118.472656 175.699219 110.871094 178.394531 L 109.335938 177.429688 C 115.699219 173.140625 119.234375 170.757812 119.941406 170.28125 C 120.132812 170.152344 120.265625 169.945312 120.300781 169.71875 C 120.335938 169.488281 120.269531 169.25 120.125 169.070312 C 116.164062 164.261719 112.738281 159.597656 112.703125 159.554688 C 112.554688 159.351562 112.324219 159.226562 112.070312 159.214844 C 111.722656 159.199219 109.988281 159.113281 106.867188 158.957031 L 105.726562 157.03125 C 108.40625 156.265625 109.898438 155.835938 110.195312 155.753906 C 110.46875 155.671875 110.683594 155.453125 110.761719 155.179688 C 110.847656 154.882812 111.277344 153.398438 112.046875 150.730469 L 113.988281 151.898438 C 114.148438 155.003906 114.238281 156.726562 114.253906 157.074219 C 114.265625 157.324219 114.394531 157.554688 114.597656 157.703125 C 114.648438 157.703125 119.332031 161.15625 124.152344 165.09375 C 124.503906 165.386719 125.027344 165.339844 125.324219 164.988281 C 125.34375 164.964844 125.359375 164.941406 125.375 164.917969 C 125.851562 164.214844 128.230469 160.695312 132.511719 154.359375 L 133.429688 155.886719 C 130.882812 163.023438 129.46875 166.988281 129.1875 167.78125 C 127.34375 166.855469 125.097656 167.59375 124.167969 169.425781 C 123.238281 171.257812 123.976562 173.496094 125.816406 174.421875 C 127.660156 175.347656 129.90625 174.613281 130.835938 172.78125 C 131.0625 172.332031 131.195312 171.84375 131.226562 171.34375 C 131.296875 171.410156 131.371094 171.476562 131.429688 171.542969 C 136.113281 176.210938 135.097656 179.066406 134.789062 179.714844 C 134.136719 180.039062 131.269531 181.027344 126.59375 176.394531 Z M 127.511719 173.15625 C 126.367188 173.148438 125.445312 172.226562 125.449219 171.085938 C 125.457031 169.953125 126.378906 169.035156 127.519531 169.035156 C 128.664062 169.042969 129.585938 169.964844 129.585938 171.105469 C 129.582031 172.242188 128.652344 173.160156 127.511719 173.15625 Z M 127.511719 173.15625 " clip-rule="nonzero"/></clipPath><linearGradient x1="252.33" gradientTransform="matrix(0.166732, 0, 0, 0.166054, 55.898757, 145.672867)" y1="3.909947" x2="252.33" gradientUnits="userSpaceOnUse" y2="498.599961" id="01571350fe"><stop stop-opacity="1" stop-color="rgb(17.298889%, 92.498779%, 100%)" offset="0"/><stop stop-opacity="1" stop-color="rgb(17.422485%, 92.427063%, 100%)" offset="0.03125"/><stop stop-opacity="1" stop-color="rgb(17.883301%, 92.160034%, 100%)" offset="0.0351563"/><stop stop-opacity="1" stop-color="rgb(18.22052%, 91.964722%, 100%)" offset="0.0390625"/><stop stop-opacity="1" stop-color="rgb(18.557739%, 91.767883%, 100%)" offset="0.0429688"/><stop stop-opacity="1" stop-color="rgb(18.894958%, 91.572571%, 100%)" offset="0.046875"/><stop stop-opacity="1" stop-color="rgb(19.232178%, 91.377258%, 100%)" offset="0.0507813"/><stop stop-opacity="1" stop-color="rgb(19.569397%, 91.181946%, 100%)" offset="0.0546875"/><stop stop-opacity="1" stop-color="rgb(19.90509%, 90.986633%, 100%)" offset="0.0585938"/><stop stop-opacity="1" stop-color="rgb(20.24231%, 90.791321%, 100%)" offset="0.0625"/><stop stop-opacity="1" stop-color="rgb(20.579529%, 90.594482%, 100%)" offset="0.0664062"/><stop stop-opacity="1" stop-color="rgb(20.916748%, 90.39917%, 100%)" offset="0.0703125"/><stop stop-opacity="1" stop-color="rgb(21.253967%, 90.203857%, 100%)" offset="0.0742188"/><stop stop-opacity="1" stop-color="rgb(21.591187%, 90.008545%, 100%)" offset="0.078125"/><stop stop-opacity="1" stop-color="rgb(21.928406%, 89.813232%, 100%)" offset="0.0820313"/><stop stop-opacity="1" stop-color="rgb(22.265625%, 89.61792%, 100%)" offset="0.0859375"/><stop stop-opacity="1" stop-color="rgb(22.601318%, 89.421082%, 100%)" offset="0.0898438"/><stop stop-opacity="1" stop-color="rgb(22.938538%, 89.225769%, 100%)" offset="0.09375"/><stop stop-opacity="1" stop-color="rgb(23.275757%, 89.030457%, 100%)" offset="0.0976562"/><stop stop-opacity="1" stop-color="rgb(23.612976%, 88.835144%, 100%)" offset="0.101563"/><stop stop-opacity="1" stop-color="rgb(23.950195%, 88.639832%, 100%)" offset="0.105469"/><stop stop-opacity="1" stop-color="rgb(24.287415%, 88.444519%, 100%)" offset="0.109375"/><stop stop-opacity="1" stop-color="rgb(24.624634%, 88.247681%, 100%)" offset="0.113281"/><stop stop-opacity="1" stop-color="rgb(24.961853%, 88.052368%, 100%)" offset="0.117188"/><stop stop-opacity="1" stop-color="rgb(25.297546%, 87.857056%, 100%)" offset="0.121094"/><stop stop-opacity="1" stop-color="rgb(25.634766%, 87.661743%, 100%)" offset="0.125"/><stop stop-opacity="1" stop-color="rgb(25.971985%, 87.466431%, 100%)" offset="0.128906"/><stop stop-opacity="1" stop-color="rgb(26.309204%, 87.271118%, 100%)" offset="0.132813"/><stop stop-opacity="1" stop-color="rgb(26.646423%, 87.07428%, 100%)" offset="0.136719"/><stop stop-opacity="1" stop-color="rgb(26.983643%, 86.878967%, 100%)" offset="0.140625"/><stop stop-opacity="1" stop-color="rgb(27.320862%, 86.683655%, 100%)" offset="0.144531"/><stop stop-opacity="1" stop-color="rgb(27.658081%, 86.488342%, 100%)" offset="0.148438"/><stop stop-opacity="1" stop-color="rgb(27.993774%, 86.291504%, 100%)" offset="0.152344"/><stop stop-opacity="1" stop-color="rgb(28.330994%, 86.096191%, 100%)" offset="0.15625"/><stop stop-opacity="1" stop-color="rgb(28.668213%, 85.900879%, 100%)" offset="0.160156"/><stop stop-opacity="1" stop-color="rgb(29.005432%, 85.705566%, 100%)" offset="0.164063"/><stop stop-opacity="1" stop-color="rgb(29.342651%, 85.510254%, 100%)" offset="0.167969"/><stop stop-opacity="1" stop-color="rgb(29.679871%, 85.314941%, 100%)" offset="0.171875"/><stop stop-opacity="1" stop-color="rgb(30.01709%, 85.118103%, 100%)" offset="0.175781"/><stop stop-opacity="1" stop-color="rgb(30.354309%, 84.922791%, 100%)" offset="0.179688"/><stop stop-opacity="1" stop-color="rgb(30.690002%, 84.727478%, 100%)" offset="0.183594"/><stop stop-opacity="1" stop-color="rgb(31.027222%, 84.532166%, 100%)" offset="0.1875"/><stop stop-opacity="1" stop-color="rgb(31.364441%, 84.336853%, 100%)" offset="0.191406"/><stop stop-opacity="1" stop-color="rgb(31.70166%, 84.141541%, 100%)" offset="0.195313"/><stop stop-opacity="1" stop-color="rgb(32.038879%, 83.944702%, 100%)" offset="0.199219"/><stop stop-opacity="1" stop-color="rgb(32.376099%, 83.74939%, 100%)" offset="0.203125"/><stop stop-opacity="1" stop-color="rgb(32.713318%, 83.554077%, 100%)" offset="0.207031"/><stop stop-opacity="1" stop-color="rgb(33.050537%, 83.358765%, 100%)" offset="0.210938"/><stop stop-opacity="1" stop-color="rgb(33.38623%, 83.163452%, 100%)" offset="0.214844"/><stop stop-opacity="1" stop-color="rgb(33.72345%, 82.96814%, 100%)" offset="0.21875"/><stop stop-opacity="1" stop-color="rgb(34.060669%, 82.771301%, 100%)" offset="0.222656"/><stop stop-opacity="1" stop-color="rgb(34.397888%, 82.575989%, 100%)" offset="0.226563"/><stop stop-opacity="1" stop-color="rgb(34.735107%, 82.380676%, 100%)" offset="0.230469"/><stop stop-opacity="1" stop-color="rgb(35.072327%, 82.185364%, 100%)" offset="0.234375"/><stop stop-opacity="1" stop-color="rgb(35.409546%, 81.990051%, 100%)" offset="0.238281"/><stop stop-opacity="1" stop-color="rgb(35.746765%, 81.794739%, 100%)" offset="0.242188"/><stop stop-opacity="1" stop-color="rgb(36.082458%, 81.5979%, 100%)" offset="0.246094"/><stop stop-opacity="1" stop-color="rgb(36.419678%, 81.402588%, 100%)" offset="0.25"/><stop stop-opacity="1" stop-color="rgb(36.756897%, 81.207275%, 100%)" offset="0.253906"/><stop stop-opacity="1" stop-color="rgb(37.094116%, 81.011963%, 100%)" offset="0.257812"/><stop stop-opacity="1" stop-color="rgb(37.431335%, 80.815125%, 100%)" offset="0.261719"/><stop stop-opacity="1" stop-color="rgb(37.768555%, 80.619812%, 100%)" offset="0.265625"/><stop stop-opacity="1" stop-color="rgb(38.105774%, 80.4245%, 100%)" offset="0.269531"/><stop stop-opacity="1" stop-color="rgb(38.442993%, 80.229187%, 100%)" offset="0.273438"/><stop stop-opacity="1" stop-color="rgb(38.778687%, 80.033875%, 100%)" offset="0.277344"/><stop stop-opacity="1" stop-color="rgb(39.115906%, 79.838562%, 100%)" offset="0.28125"/><stop stop-opacity="1" stop-color="rgb(39.453125%, 79.641724%, 100%)" offset="0.285156"/><stop stop-opacity="1" stop-color="rgb(39.790344%, 79.446411%, 100%)" offset="0.289063"/><stop stop-opacity="1" stop-color="rgb(40.127563%, 79.251099%, 100%)" offset="0.292969"/><stop stop-opacity="1" stop-color="rgb(40.464783%, 79.055786%, 100%)" offset="0.296875"/><stop stop-opacity="1" stop-color="rgb(40.802002%, 78.860474%, 100%)" offset="0.300781"/><stop stop-opacity="1" stop-color="rgb(41.139221%, 78.665161%, 100%)" offset="0.304688"/><stop stop-opacity="1" stop-color="rgb(41.474915%, 78.468323%, 100%)" offset="0.308594"/><stop stop-opacity="1" stop-color="rgb(41.812134%, 78.27301%, 100%)" offset="0.3125"/><stop stop-opacity="1" stop-color="rgb(42.149353%, 78.077698%, 100%)" offset="0.316406"/><stop stop-opacity="1" stop-color="rgb(42.486572%, 77.882385%, 100%)" offset="0.320313"/><stop stop-opacity="1" stop-color="rgb(42.823792%, 77.687073%, 100%)" offset="0.324219"/><stop stop-opacity="1" stop-color="rgb(43.161011%, 77.49176%, 100%)" offset="0.328125"/><stop stop-opacity="1" stop-color="rgb(43.49823%, 77.294922%, 100%)" offset="0.332031"/><stop stop-opacity="1" stop-color="rgb(43.835449%, 77.099609%, 100%)" offset="0.335938"/><stop stop-opacity="1" stop-color="rgb(44.171143%, 76.904297%, 100%)" offset="0.339844"/><stop stop-opacity="1" stop-color="rgb(44.508362%, 76.708984%, 100%)" offset="0.34375"/><stop stop-opacity="1" stop-color="rgb(44.845581%, 76.513672%, 100%)" offset="0.347656"/><stop stop-opacity="1" stop-color="rgb(45.1828%, 76.318359%, 100%)" offset="0.351563"/><stop stop-opacity="1" stop-color="rgb(45.52002%, 76.121521%, 100%)" offset="0.355469"/><stop stop-opacity="1" stop-color="rgb(45.857239%, 75.926208%, 100%)" offset="0.359375"/><stop stop-opacity="1" stop-color="rgb(46.194458%, 75.730896%, 100%)" offset="0.363281"/><stop stop-opacity="1" stop-color="rgb(46.531677%, 75.535583%, 100%)" offset="0.367188"/><stop stop-opacity="1" stop-color="rgb(46.867371%, 75.338745%, 100%)" offset="0.371094"/><stop stop-opacity="1" stop-color="rgb(47.20459%, 75.143433%, 100%)" offset="0.375"/><stop stop-opacity="1" stop-color="rgb(47.541809%, 74.94812%, 100%)" offset="0.378906"/><stop stop-opacity="1" stop-color="rgb(47.879028%, 74.752808%, 100%)" offset="0.382813"/><stop stop-opacity="1" stop-color="rgb(48.216248%, 74.557495%, 100%)" offset="0.386719"/><stop stop-opacity="1" stop-color="rgb(48.553467%, 74.362183%, 100%)" offset="0.390625"/><stop stop-opacity="1" stop-color="rgb(48.890686%, 74.165344%, 100%)" offset="0.394531"/><stop stop-opacity="1" stop-color="rgb(49.227905%, 73.970032%, 100%)" offset="0.398438"/><stop stop-opacity="1" stop-color="rgb(49.563599%, 73.774719%, 100%)" offset="0.402344"/><stop stop-opacity="1" stop-color="rgb(49.900818%, 73.579407%, 100%)" offset="0.40625"/><stop stop-opacity="1" stop-color="rgb(50.238037%, 73.384094%, 100%)" offset="0.410156"/><stop stop-opacity="1" stop-color="rgb(50.575256%, 73.188782%, 100%)" offset="0.414063"/><stop stop-opacity="1" stop-color="rgb(50.912476%, 72.991943%, 100%)" offset="0.417969"/><stop stop-opacity="1" stop-color="rgb(51.249695%, 72.796631%, 100%)" offset="0.421875"/><stop stop-opacity="1" stop-color="rgb(51.586914%, 72.601318%, 100%)" offset="0.425781"/><stop stop-opacity="1" stop-color="rgb(51.924133%, 72.406006%, 100%)" offset="0.429688"/><stop stop-opacity="1" stop-color="rgb(52.259827%, 72.210693%, 100%)" offset="0.433594"/><stop stop-opacity="1" stop-color="rgb(52.597046%, 72.015381%, 100%)" offset="0.4375"/><stop stop-opacity="1" stop-color="rgb(52.934265%, 71.818542%, 100%)" offset="0.441406"/><stop stop-opacity="1" stop-color="rgb(53.271484%, 71.62323%, 100%)" offset="0.445313"/><stop stop-opacity="1" stop-color="rgb(53.608704%, 71.427917%, 100%)" offset="0.449219"/><stop stop-opacity="1" stop-color="rgb(53.945923%, 71.232605%, 100%)" offset="0.453125"/><stop stop-opacity="1" stop-color="rgb(54.283142%, 71.037292%, 100%)" offset="0.457031"/><stop stop-opacity="1" stop-color="rgb(54.620361%, 70.84198%, 100%)" offset="0.460938"/><stop stop-opacity="1" stop-color="rgb(54.956055%, 70.645142%, 100%)" offset="0.464844"/><stop stop-opacity="1" stop-color="rgb(55.293274%, 70.449829%, 100%)" offset="0.46875"/><stop stop-opacity="1" stop-color="rgb(55.630493%, 70.254517%, 100%)" offset="0.472656"/><stop stop-opacity="1" stop-color="rgb(55.967712%, 70.059204%, 100%)" offset="0.476563"/><stop stop-opacity="1" stop-color="rgb(56.304932%, 69.862366%, 100%)" offset="0.480469"/><stop stop-opacity="1" stop-color="rgb(56.642151%, 69.667053%, 100%)" offset="0.484375"/><stop stop-opacity="1" stop-color="rgb(56.97937%, 69.471741%, 100%)" offset="0.488281"/><stop stop-opacity="1" stop-color="rgb(57.316589%, 69.276428%, 100%)" offset="0.492188"/><stop stop-opacity="1" stop-color="rgb(57.652283%, 69.081116%, 100%)" offset="0.496094"/><stop stop-opacity="1" stop-color="rgb(57.989502%, 68.885803%, 100%)" offset="0.5"/><stop stop-opacity="1" stop-color="rgb(58.326721%, 68.688965%, 100%)" offset="0.503906"/><stop stop-opacity="1" stop-color="rgb(58.66394%, 68.493652%, 100%)" offset="0.507813"/><stop stop-opacity="1" stop-color="rgb(59.00116%, 68.29834%, 100%)" offset="0.511719"/><stop stop-opacity="1" stop-color="rgb(59.338379%, 68.103027%, 100%)" offset="0.515625"/><stop stop-opacity="1" stop-color="rgb(59.675598%, 67.907715%, 100%)" offset="0.519531"/><stop stop-opacity="1" stop-color="rgb(60.012817%, 67.712402%, 100%)" offset="0.523438"/><stop stop-opacity="1" stop-color="rgb(60.348511%, 67.515564%, 100%)" offset="0.527344"/><stop stop-opacity="1" stop-color="rgb(60.68573%, 67.320251%, 100%)" offset="0.53125"/><stop stop-opacity="1" stop-color="rgb(61.022949%, 67.124939%, 100%)" offset="0.535156"/><stop stop-opacity="1" stop-color="rgb(61.360168%, 66.929626%, 100%)" offset="0.539063"/><stop stop-opacity="1" stop-color="rgb(61.697388%, 66.734314%, 100%)" offset="0.542969"/><stop stop-opacity="1" stop-color="rgb(62.034607%, 66.539001%, 100%)" offset="0.546875"/><stop stop-opacity="1" stop-color="rgb(62.3703%, 66.342163%, 100%)" offset="0.550781"/><stop stop-opacity="1" stop-color="rgb(62.70752%, 66.146851%, 100%)" offset="0.554688"/><stop stop-opacity="1" stop-color="rgb(63.044739%, 65.951538%, 100%)" offset="0.558594"/><stop stop-opacity="1" stop-color="rgb(63.381958%, 65.756226%, 100%)" offset="0.5625"/><stop stop-opacity="1" stop-color="rgb(63.719177%, 65.560913%, 100%)" offset="0.566406"/><stop stop-opacity="1" stop-color="rgb(64.056396%, 65.365601%, 100%)" offset="0.570313"/><stop stop-opacity="1" stop-color="rgb(64.393616%, 65.168762%, 100%)" offset="0.574219"/><stop stop-opacity="1" stop-color="rgb(64.730835%, 64.97345%, 100%)" offset="0.578125"/><stop stop-opacity="1" stop-color="rgb(65.066528%, 64.778137%, 100%)" offset="0.582031"/><stop stop-opacity="1" stop-color="rgb(65.403748%, 64.582825%, 100%)" offset="0.585938"/><stop stop-opacity="1" stop-color="rgb(65.740967%, 64.387512%, 100%)" offset="0.589844"/><stop stop-opacity="1" stop-color="rgb(66.078186%, 64.1922%, 100%)" offset="0.59375"/><stop stop-opacity="1" stop-color="rgb(66.415405%, 63.995361%, 100%)" offset="0.597656"/><stop stop-opacity="1" stop-color="rgb(66.752625%, 63.800049%, 100%)" offset="0.601562"/><stop stop-opacity="1" stop-color="rgb(67.089844%, 63.604736%, 100%)" offset="0.605469"/><stop stop-opacity="1" stop-color="rgb(67.427063%, 63.409424%, 100%)" offset="0.609375"/><stop stop-opacity="1" stop-color="rgb(67.762756%, 63.212585%, 100%)" offset="0.613281"/><stop stop-opacity="1" stop-color="rgb(68.099976%, 63.017273%, 100%)" offset="0.617188"/><stop stop-opacity="1" stop-color="rgb(68.437195%, 62.82196%, 100%)" offset="0.621094"/><stop stop-opacity="1" stop-color="rgb(68.774414%, 62.626648%, 100%)" offset="0.625"/><stop stop-opacity="1" stop-color="rgb(69.111633%, 62.431335%, 100%)" offset="0.628906"/><stop stop-opacity="1" stop-color="rgb(69.448853%, 62.236023%, 100%)" offset="0.632812"/><stop stop-opacity="1" stop-color="rgb(69.786072%, 62.039185%, 100%)" offset="0.636719"/><stop stop-opacity="1" stop-color="rgb(70.123291%, 61.843872%, 100%)" offset="0.640625"/><stop stop-opacity="1" stop-color="rgb(70.458984%, 61.64856%, 100%)" offset="0.644531"/><stop stop-opacity="1" stop-color="rgb(70.796204%, 61.453247%, 100%)" offset="0.648438"/><stop stop-opacity="1" stop-color="rgb(71.133423%, 61.257935%, 100%)" offset="0.652344"/><stop stop-opacity="1" stop-color="rgb(71.470642%, 61.062622%, 100%)" offset="0.65625"/><stop stop-opacity="1" stop-color="rgb(71.807861%, 60.865784%, 100%)" offset="0.660156"/><stop stop-opacity="1" stop-color="rgb(72.145081%, 60.670471%, 100%)" offset="0.664062"/><stop stop-opacity="1" stop-color="rgb(72.4823%, 60.475159%, 100%)" offset="0.667969"/><stop stop-opacity="1" stop-color="rgb(72.819519%, 60.279846%, 100%)" offset="0.671875"/><stop stop-opacity="1" stop-color="rgb(73.155212%, 60.084534%, 100%)" offset="0.675781"/><stop stop-opacity="1" stop-color="rgb(73.492432%, 59.889221%, 100%)" offset="0.679688"/><stop stop-opacity="1" stop-color="rgb(73.829651%, 59.692383%, 100%)" offset="0.683594"/><stop stop-opacity="1" stop-color="rgb(74.16687%, 59.49707%, 100%)" offset="0.6875"/><stop stop-opacity="1" stop-color="rgb(74.504089%, 59.301758%, 100%)" offset="0.691406"/><stop stop-opacity="1" stop-color="rgb(74.841309%, 59.106445%, 100%)" offset="0.695313"/><stop stop-opacity="1" stop-color="rgb(75.178528%, 58.911133%, 100%)" offset="0.699219"/><stop stop-opacity="1" stop-color="rgb(75.515747%, 58.71582%, 100%)" offset="0.703125"/><stop stop-opacity="1" stop-color="rgb(75.85144%, 58.518982%, 100%)" offset="0.707031"/><stop stop-opacity="1" stop-color="rgb(76.18866%, 58.323669%, 100%)" offset="0.710938"/><stop stop-opacity="1" stop-color="rgb(76.525879%, 58.128357%, 100%)" offset="0.714844"/><stop stop-opacity="1" stop-color="rgb(76.863098%, 57.933044%, 100%)" offset="0.71875"/><stop stop-opacity="1" stop-color="rgb(77.200317%, 57.736206%, 100%)" offset="0.722656"/><stop stop-opacity="1" stop-color="rgb(77.537537%, 57.540894%, 100%)" offset="0.726563"/><stop stop-opacity="1" stop-color="rgb(77.874756%, 57.345581%, 100%)" offset="0.730469"/><stop stop-opacity="1" stop-color="rgb(78.211975%, 57.150269%, 100%)" offset="0.734375"/><stop stop-opacity="1" stop-color="rgb(78.547668%, 56.954956%, 100%)" offset="0.738281"/><stop stop-opacity="1" stop-color="rgb(78.884888%, 56.759644%, 100%)" offset="0.742188"/><stop stop-opacity="1" stop-color="rgb(79.222107%, 56.562805%, 100%)" offset="0.746094"/><stop stop-opacity="1" stop-color="rgb(79.559326%, 56.367493%, 100%)" offset="0.75"/><stop stop-opacity="1" stop-color="rgb(79.896545%, 56.17218%, 100%)" offset="0.753906"/><stop stop-opacity="1" stop-color="rgb(80.233765%, 55.976868%, 100%)" offset="0.757813"/><stop stop-opacity="1" stop-color="rgb(80.570984%, 55.781555%, 100%)" offset="0.761719"/><stop stop-opacity="1" stop-color="rgb(80.908203%, 55.586243%, 100%)" offset="0.765625"/><stop stop-opacity="1" stop-color="rgb(81.243896%, 55.389404%, 100%)" offset="0.769531"/><stop stop-opacity="1" stop-color="rgb(81.581116%, 55.194092%, 100%)" offset="0.773438"/><stop stop-opacity="1" stop-color="rgb(81.918335%, 54.998779%, 100%)" offset="0.777344"/><stop stop-opacity="1" stop-color="rgb(82.255554%, 54.803467%, 100%)" offset="0.78125"/><stop stop-opacity="1" stop-color="rgb(82.592773%, 54.608154%, 100%)" offset="0.785156"/><stop stop-opacity="1" stop-color="rgb(82.929993%, 54.412842%, 100%)" offset="0.789062"/><stop stop-opacity="1" stop-color="rgb(83.267212%, 54.216003%, 100%)" offset="0.792969"/><stop stop-opacity="1" stop-color="rgb(83.604431%, 54.020691%, 100%)" offset="0.796875"/><stop stop-opacity="1" stop-color="rgb(83.940125%, 53.825378%, 100%)" offset="0.800781"/><stop stop-opacity="1" stop-color="rgb(84.277344%, 53.630066%, 100%)" offset="0.804688"/><stop stop-opacity="1" stop-color="rgb(84.614563%, 53.434753%, 100%)" offset="0.808594"/><stop stop-opacity="1" stop-color="rgb(84.951782%, 53.239441%, 100%)" offset="0.8125"/><stop stop-opacity="1" stop-color="rgb(85.289001%, 53.042603%, 100%)" offset="0.816406"/><stop stop-opacity="1" stop-color="rgb(85.626221%, 52.84729%, 100%)" offset="0.820312"/><stop stop-opacity="1" stop-color="rgb(85.96344%, 52.651978%, 100%)" offset="0.824219"/><stop stop-opacity="1" stop-color="rgb(86.300659%, 52.456665%, 100%)" offset="0.828125"/><stop stop-opacity="1" stop-color="rgb(86.636353%, 52.259827%, 100%)" offset="0.832031"/><stop stop-opacity="1" stop-color="rgb(86.973572%, 52.064514%, 100%)" offset="0.835938"/><stop stop-opacity="1" stop-color="rgb(87.310791%, 51.869202%, 100%)" offset="0.839844"/><stop stop-opacity="1" stop-color="rgb(87.64801%, 51.673889%, 100%)" offset="0.84375"/><stop stop-opacity="1" stop-color="rgb(87.985229%, 51.478577%, 100%)" offset="0.847656"/><stop stop-opacity="1" stop-color="rgb(88.322449%, 51.283264%, 100%)" offset="0.851563"/><stop stop-opacity="1" stop-color="rgb(88.659668%, 51.086426%, 100%)" offset="0.855469"/><stop stop-opacity="1" stop-color="rgb(88.996887%, 50.891113%, 100%)" offset="0.859375"/><stop stop-opacity="1" stop-color="rgb(89.332581%, 50.695801%, 100%)" offset="0.863281"/><stop stop-opacity="1" stop-color="rgb(89.6698%, 50.500488%, 100%)" offset="0.867188"/><stop stop-opacity="1" stop-color="rgb(90.007019%, 50.305176%, 100%)" offset="0.871094"/><stop stop-opacity="1" stop-color="rgb(90.344238%, 50.109863%, 100%)" offset="0.875"/><stop stop-opacity="1" stop-color="rgb(90.681458%, 49.913025%, 100%)" offset="0.878906"/><stop stop-opacity="1" stop-color="rgb(91.018677%, 49.717712%, 100%)" offset="0.882813"/><stop stop-opacity="1" stop-color="rgb(91.355896%, 49.5224%, 100%)" offset="0.886719"/><stop stop-opacity="1" stop-color="rgb(91.693115%, 49.327087%, 100%)" offset="0.890625"/><stop stop-opacity="1" stop-color="rgb(92.028809%, 49.131775%, 100%)" offset="0.894531"/><stop stop-opacity="1" stop-color="rgb(92.366028%, 48.936462%, 100%)" offset="0.898438"/><stop stop-opacity="1" stop-color="rgb(92.703247%, 48.739624%, 100%)" offset="0.902344"/><stop stop-opacity="1" stop-color="rgb(93.040466%, 48.544312%, 100%)" offset="0.90625"/><stop stop-opacity="1" stop-color="rgb(93.377686%, 48.348999%, 100%)" offset="0.910156"/><stop stop-opacity="1" stop-color="rgb(93.714905%, 48.153687%, 100%)" offset="0.914063"/><stop stop-opacity="1" stop-color="rgb(94.052124%, 47.958374%, 100%)" offset="0.917969"/><stop stop-opacity="1" stop-color="rgb(94.389343%, 47.763062%, 100%)" offset="0.921875"/><stop stop-opacity="1" stop-color="rgb(94.725037%, 47.566223%, 100%)" offset="0.925781"/><stop stop-opacity="1" stop-color="rgb(95.062256%, 47.370911%, 100%)" offset="0.929688"/><stop stop-opacity="1" stop-color="rgb(95.399475%, 47.175598%, 100%)" offset="0.933594"/><stop stop-opacity="1" stop-color="rgb(95.736694%, 46.980286%, 100%)" offset="0.9375"/><stop stop-opacity="1" stop-color="rgb(96.073914%, 46.783447%, 100%)" offset="0.941406"/><stop stop-opacity="1" stop-color="rgb(96.411133%, 46.588135%, 100%)" offset="0.945313"/><stop stop-opacity="1" stop-color="rgb(96.748352%, 46.392822%, 100%)" offset="0.949219"/><stop stop-opacity="1" stop-color="rgb(97.085571%, 46.19751%, 100%)" offset="0.953125"/><stop stop-opacity="1" stop-color="rgb(97.341919%, 46.047974%, 100%)" offset="0.957031"/><stop stop-opacity="1" stop-color="rgb(97.599792%, 45.899963%, 100%)" offset="0.960938"/><stop stop-opacity="1" stop-color="rgb(97.599792%, 45.899963%, 100%)" offset="0.96875"/><stop stop-opacity="1" stop-color="rgb(97.599792%, 45.899963%, 100%)" offset="1"/></linearGradient></defs><g clip-path="url(#4070eed0e9)"><g clip-path="url(#8bc6839d63)"><path fill="url(#01571350fe)" d="M 54.339844 146.320312 L 54.339844 228.46875 L 138.90625 228.46875 L 138.90625 146.320312 Z M 54.339844 146.320312 " fill-rule="nonzero"/></g></g><g fill="#3eddfb" fill-opacity="1"><g transform="translate(145.506923, 191.528836)"><g><path d="M 6.421875 -18.125 L 6.421875 -3.3125 C 6.421875 -2.5625 6.398438 -1.882812 6.359375 -1.28125 C 6.316406 -0.675781 6.238281 -0.125 6.125 0.375 C 6.007812 0.875 5.847656 1.320312 5.640625 1.71875 C 5.441406 2.125 5.191406 2.507812 4.890625 2.875 C 4.253906 3.625 3.457031 4.144531 2.5 4.4375 C 1.539062 4.738281 0.523438 4.890625 -0.546875 4.890625 L -0.546875 1.875 C -0.046875 1.875 0.382812 1.796875 0.75 1.640625 C 1.113281 1.484375 1.410156 1.289062 1.640625 1.0625 C 1.984375 0.757812 2.207031 0.359375 2.3125 -0.140625 C 2.414062 -0.640625 2.46875 -1.195312 2.46875 -1.8125 L 2.46875 -18.125 Z M 6.421875 -18.125 "/></g></g></g><g fill="#3eddfb" fill-opacity="1"><g transform="translate(153.878859, 191.528836)"><g><path d="M 6.765625 -7.078125 L 11.359375 -7.078125 L 10.53125 -9.5 C 10.257812 -10.238281 10.007812 -10.988281 9.78125 -11.75 C 9.550781 -12.507812 9.332031 -13.269531 9.125 -14.03125 L 9.0625 -14.03125 C 8.851562 -13.300781 8.625 -12.554688 8.375 -11.796875 C 8.125 -11.046875 7.863281 -10.28125 7.59375 -9.5 Z M 7.109375 -18.125 L 11.1875 -18.125 L 17.890625 0 L 13.71875 0 L 12.3125 -4.171875 L 5.875 -4.171875 L 4.453125 0 L 0.34375 0 Z M 7.109375 -18.125 "/></g></g></g><g fill="#3eddfb" fill-opacity="1"><g transform="translate(172.089989, 191.528836)"><g><path d="M 4.34375 -18.125 L 7.359375 -8.859375 C 7.460938 -8.554688 7.578125 -8.1875 7.703125 -7.75 C 7.835938 -7.320312 7.972656 -6.875 8.109375 -6.40625 C 8.242188 -5.945312 8.375 -5.488281 8.5 -5.03125 C 8.625 -4.570312 8.722656 -4.160156 8.796875 -3.796875 L 8.890625 -3.796875 C 9.046875 -4.523438 9.269531 -5.363281 9.5625 -6.3125 C 9.863281 -7.257812 10.140625 -8.117188 10.390625 -8.890625 L 13.4375 -18.125 L 17.484375 -18.125 L 11.015625 0 L 6.734375 0 L 0.171875 -18.125 Z M 4.34375 -18.125 "/></g></g></g><g fill="#3eddfb" fill-opacity="1"><g transform="translate(189.725723, 191.528836)"><g><path d="M 6.765625 -7.078125 L 11.359375 -7.078125 L 10.53125 -9.5 C 10.257812 -10.238281 10.007812 -10.988281 9.78125 -11.75 C 9.550781 -12.507812 9.332031 -13.269531 9.125 -14.03125 L 9.0625 -14.03125 C 8.851562 -13.300781 8.625 -12.554688 8.375 -11.796875 C 8.125 -11.046875 7.863281 -10.28125 7.59375 -9.5 Z M 7.109375 -18.125 L 11.1875 -18.125 L 17.890625 0 L 13.71875 0 L 12.3125 -4.171875 L 5.875 -4.171875 L 4.453125 0 L 0.34375 0 Z M 7.109375 -18.125 "/></g></g></g><g fill="#3eddfb" fill-opacity="1"><g transform="translate(207.936853, 191.528836)"><g><path d="M 14.359375 -18.125 L 14.359375 -15.015625 L 9.234375 -15.015625 L 9.234375 0 L 5.296875 0 L 5.296875 -15.015625 L 0.28125 -15.015625 L 0.28125 -18.125 Z M 14.359375 -18.125 "/></g></g></g><g fill="#3eddfb" fill-opacity="1"><g transform="translate(222.551782, 191.528836)"><g><path d="M 1.984375 -18.125 L 8.859375 -18.125 C 9.878906 -18.125 10.773438 -17.972656 11.546875 -17.671875 C 12.328125 -17.378906 12.972656 -16.976562 13.484375 -16.46875 C 14.003906 -15.957031 14.394531 -15.359375 14.65625 -14.671875 C 14.914062 -13.992188 15.046875 -13.265625 15.046875 -12.484375 C 15.046875 -11.753906 14.9375 -11.101562 14.71875 -10.53125 C 14.5 -9.96875 14.21875 -9.476562 13.875 -9.0625 C 13.539062 -8.65625 13.164062 -8.3125 12.75 -8.03125 C 12.34375 -7.757812 11.945312 -7.535156 11.5625 -7.359375 L 16 0 L 11.484375 0 L 8 -6.671875 L 5.890625 -6.671875 L 5.890625 0 L 1.984375 0 Z M 5.890625 -9.6875 L 7.453125 -9.6875 C 8.484375 -9.6875 9.328125 -9.894531 9.984375 -10.3125 C 10.648438 -10.738281 10.984375 -11.441406 10.984375 -12.421875 C 10.984375 -13.285156 10.71875 -13.953125 10.1875 -14.421875 C 9.664062 -14.890625 8.894531 -15.125 7.875 -15.125 L 5.890625 -15.125 Z M 5.890625 -9.6875 "/></g></g></g><g fill="#3eddfb" fill-opacity="1"><g transform="translate(238.979191, 191.528836)"><g><path d="M 6.765625 -7.078125 L 11.359375 -7.078125 L 10.53125 -9.5 C 10.257812 -10.238281 10.007812 -10.988281 9.78125 -11.75 C 9.550781 -12.507812 9.332031 -13.269531 9.125 -14.03125 L 9.0625 -14.03125 C 8.851562 -13.300781 8.625 -12.554688 8.375 -11.796875 C 8.125 -11.046875 7.863281 -10.28125 7.59375 -9.5 Z M 7.109375 -18.125 L 11.1875 -18.125 L 17.890625 0 L 13.71875 0 L 12.3125 -4.171875 L 5.875 -4.171875 L 4.453125 0 L 0.34375 0 Z M 7.109375 -18.125 "/></g></g></g><g fill="#3eddfb" fill-opacity="1"><g transform="translate(257.190322, 191.528836)"><g><path d="M 4.34375 -18.125 L 7.359375 -8.859375 C 7.460938 -8.554688 7.578125 -8.1875 7.703125 -7.75 C 7.835938 -7.320312 7.972656 -6.875 8.109375 -6.40625 C 8.242188 -5.945312 8.375 -5.488281 8.5 -5.03125 C 8.625 -4.570312 8.722656 -4.160156 8.796875 -3.796875 L 8.890625 -3.796875 C 9.046875 -4.523438 9.269531 -5.363281 9.5625 -6.3125 C 9.863281 -7.257812 10.140625 -8.117188 10.390625 -8.890625 L 13.4375 -18.125 L 17.484375 -18.125 L 11.015625 0 L 6.734375 0 L 0.171875 -18.125 Z M 4.34375 -18.125 "/></g></g></g><g fill="#3eddfb" fill-opacity="1"><g transform="translate(274.826055, 191.528836)"><g><path d="M 1.984375 -18.125 L 13.78125 -18.125 L 13.78125 -15.078125 L 5.921875 -15.078125 L 5.921875 -10.9375 L 13.03125 -10.9375 L 13.03125 -7.90625 L 5.921875 -7.90625 L 5.921875 -3.046875 L 13.859375 -3.046875 L 13.859375 0 L 1.984375 0 Z M 1.984375 -18.125 "/></g></g></g><g fill="#3eddfb" fill-opacity="1"><g transform="translate(289.699918, 191.528836)"><g><path d="M 1.984375 -18.125 L 5.921875 -18.125 L 5.921875 -3.109375 L 13.234375 -3.109375 L 13.234375 0 L 1.984375 0 Z M 1.984375 -18.125 "/></g></g></g><g fill="#3eddfb" fill-opacity="1"><g transform="translate(303.164062, 191.528836)"><g><path d="M 7.859375 -18.4375 C 9.023438 -18.4375 10.054688 -18.320312 10.953125 -18.09375 C 11.859375 -17.863281 12.664062 -17.566406 13.375 -17.203125 L 12.484375 -14.265625 C 11.703125 -14.648438 10.945312 -14.941406 10.21875 -15.140625 C 9.488281 -15.347656 8.773438 -15.453125 8.078125 -15.453125 C 7.160156 -15.453125 6.445312 -15.269531 5.9375 -14.90625 C 5.425781 -14.539062 5.171875 -14.050781 5.171875 -13.4375 C 5.171875 -12.800781 5.390625 -12.316406 5.828125 -11.984375 C 6.273438 -11.660156 6.988281 -11.347656 7.96875 -11.046875 L 9.6875 -10.5 C 11.125 -10.019531 12.25 -9.335938 13.0625 -8.453125 C 13.882812 -7.578125 14.296875 -6.492188 14.296875 -5.203125 C 14.296875 -4.441406 14.148438 -3.722656 13.859375 -3.046875 C 13.578125 -2.378906 13.144531 -1.796875 12.5625 -1.296875 C 11.988281 -0.796875 11.269531 -0.398438 10.40625 -0.109375 C 9.550781 0.171875 8.546875 0.3125 7.390625 0.3125 C 5.222656 0.3125 3.238281 -0.125 1.4375 -1 L 2.328125 -3.9375 C 3.148438 -3.539062 3.953125 -3.226562 4.734375 -3 C 5.523438 -2.78125 6.351562 -2.671875 7.21875 -2.671875 C 8.238281 -2.671875 9.003906 -2.859375 9.515625 -3.234375 C 10.035156 -3.609375 10.296875 -4.128906 10.296875 -4.796875 C 10.296875 -5.035156 10.253906 -5.265625 10.171875 -5.484375 C 10.085938 -5.703125 9.925781 -5.910156 9.6875 -6.109375 C 9.457031 -6.316406 9.144531 -6.519531 8.75 -6.71875 C 8.363281 -6.914062 7.851562 -7.113281 7.21875 -7.3125 L 5.703125 -7.828125 C 5.023438 -8.054688 4.40625 -8.320312 3.84375 -8.625 C 3.289062 -8.9375 2.816406 -9.289062 2.421875 -9.6875 C 2.035156 -10.09375 1.726562 -10.566406 1.5 -11.109375 C 1.28125 -11.660156 1.171875 -12.300781 1.171875 -13.03125 C 1.171875 -13.8125 1.316406 -14.53125 1.609375 -15.1875 C 1.898438 -15.851562 2.328125 -16.425781 2.890625 -16.90625 C 3.453125 -17.394531 4.148438 -17.769531 4.984375 -18.03125 C 5.816406 -18.300781 6.773438 -18.4375 7.859375 -18.4375 Z M 7.859375 -18.4375 "/></g></g></g><g fill="#3eddfb" fill-opacity="1"><g transform="translate(127.431381, 219.197009)"><g><path d="M 0.0625 1.050781 C 0.585938 1.050781 0.925781 0.988281 1.265625 0.523438 L 1.449219 0.308594 C 2.039062 -0.523438 2.59375 -1.328125 3.054688 -2.191406 C 3.210938 -2.53125 3.363281 -2.808594 3.582031 -3.148438 L 4.597656 -4.90625 C 4.9375 -5.554688 5.308594 -6.171875 5.648438 -6.820312 C 5.988281 -7.4375 6.359375 -8.085938 6.699219 -8.734375 C 6.757812 -8.828125 6.820312 -8.949219 6.914062 -9.105469 C 6.945312 -9.257812 6.914062 -9.351562 6.789062 -9.414062 C 6.699219 -9.476562 6.636719 -9.507812 6.542969 -9.507812 C 6.480469 -9.507812 6.421875 -9.476562 6.390625 -9.445312 L 6.171875 -9.167969 L 5.15625 -7.316406 C 4.90625 -6.914062 4.691406 -6.511719 4.445312 -6.050781 C 3.980469 -5.277344 3.550781 -4.476562 3.117188 -3.703125 C 2.65625 -2.902344 2.191406 -2.097656 1.726562 -1.328125 C 1.480469 -0.925781 1.171875 -0.523438 0.894531 -0.15625 C 0.863281 -0.09375 0.800781 -0.03125 0.773438 0.0625 C 0.742188 0.125 0.679688 0.15625 0.585938 0.125 C 0.492188 0.09375 0.433594 0.03125 0.433594 -0.0625 C 0.402344 -0.15625 0.402344 -0.214844 0.371094 -0.308594 C 0.371094 -3.242188 1.140625 -6.082031 1.976562 -8.828125 C 2.066406 -9.011719 3.117188 -12.4375 3.273438 -12.59375 C 3.332031 -12.6875 3.394531 -12.746094 3.488281 -12.808594 C 4.074219 -13.117188 7.191406 -13.582031 7.964844 -13.671875 C 8.703125 -13.765625 9.507812 -13.859375 10.214844 -14.105469 C 10.277344 -14.136719 10.339844 -14.199219 10.371094 -14.289062 C 10.433594 -14.445312 10.402344 -14.628906 10.246094 -14.816406 C 10.1875 -14.878906 10.125 -14.90625 10.03125 -14.90625 L 8.394531 -14.597656 C 7.996094 -14.539062 7.625 -14.476562 7.222656 -14.414062 C 6.820312 -14.351562 6.449219 -14.289062 6.050781 -14.199219 C 5.710938 -14.167969 5.402344 -14.105469 5.09375 -14.042969 C 4.753906 -13.953125 4.445312 -13.890625 4.136719 -13.859375 C 4.074219 -13.828125 4.011719 -13.828125 3.921875 -13.828125 C 3.859375 -13.890625 3.828125 -13.921875 3.828125 -13.953125 C 3.828125 -14.011719 3.859375 -14.136719 3.890625 -14.289062 C 4.011719 -14.628906 4.136719 -15 4.257812 -15.339844 C 4.351562 -15.679688 4.476562 -16.019531 4.597656 -16.359375 C 4.628906 -16.511719 4.660156 -16.667969 4.660156 -16.789062 C 4.691406 -16.851562 4.660156 -16.914062 4.597656 -16.976562 C 4.507812 -17.128906 4.351562 -17.222656 4.199219 -17.222656 C 3.796875 -17.222656 3.519531 -16.328125 3.300781 -16.019531 C 2.964844 -15.371094 2.683594 -14.753906 2.40625 -14.042969 C 2.007812 -13.273438 2.191406 -13.457031 1.359375 -13.210938 C 1.328125 -13.179688 1.296875 -13.179688 1.234375 -13.179688 C 0.832031 -13.085938 0.464844 -12.964844 0.09375 -12.871094 C -0.277344 -12.777344 -0.648438 -12.65625 -1.019531 -12.5625 C -1.082031 -12.53125 -1.140625 -12.53125 -1.203125 -12.5 C -1.265625 -12.46875 -1.328125 -12.40625 -1.417969 -12.378906 C -1.449219 -12.347656 -1.449219 -12.316406 -1.449219 -12.253906 C -1.417969 -12.097656 -1.265625 -11.914062 -1.140625 -11.914062 C -1.050781 -11.882812 -0.988281 -11.882812 -0.925781 -11.882812 C -0.832031 -11.882812 -0.773438 -11.882812 -0.710938 -11.882812 C -0.492188 -11.914062 -0.308594 -11.976562 -0.125 -12.007812 C 0.0625 -12.039062 0.246094 -12.097656 0.433594 -12.128906 C 0.585938 -12.160156 0.742188 -12.222656 0.894531 -12.253906 C 1.050781 -12.285156 1.203125 -12.316406 1.359375 -12.347656 L 1.417969 -12.347656 C 1.636719 -12.347656 1.726562 -12.253906 1.636719 -12.070312 C 1.605469 -11.914062 1.542969 -11.761719 1.480469 -11.605469 C 1.417969 -11.453125 1.359375 -11.328125 1.328125 -11.171875 C 0.183594 -7.839844 -0.585938 -4.566406 -0.925781 -1.082031 C -0.925781 -0.679688 -0.894531 -0.308594 -0.800781 0.09375 C -0.679688 0.554688 -0.464844 0.957031 0.0625 1.050781 Z M 0.0625 1.050781 "/></g></g></g><g fill="#3eddfb" fill-opacity="1"><g transform="translate(132.73984, 219.197009)"><g><path d="M 2.683594 -3.054688 C 3.332031 -3.054688 3.765625 -3.085938 4.136719 -3.671875 C 4.230469 -3.765625 4.257812 -3.828125 4.289062 -3.921875 C 4.660156 -4.628906 4.816406 -5.433594 4.785156 -6.296875 C 4.722656 -7.007812 4.507812 -7.625 4.136719 -8.210938 C 3.980469 -8.425781 3.859375 -8.613281 3.734375 -8.828125 C 3.671875 -8.949219 3.703125 -9.042969 3.828125 -9.105469 C 4.230469 -9.136719 4.628906 -9.167969 5.15625 -9.167969 C 5.492188 -9.167969 5.863281 -9.167969 6.296875 -9.167969 C 6.699219 -9.136719 7.191406 -9.136719 7.746094 -9.136719 C 7.902344 -9.167969 7.933594 -9.257812 7.839844 -9.414062 C 7.746094 -9.539062 7.5625 -9.628906 7.347656 -9.691406 C 6.730469 -9.722656 6.050781 -9.753906 5.433594 -9.753906 C 4.785156 -9.753906 4.199219 -9.722656 3.703125 -9.691406 C 3.179688 -9.628906 2.902344 -9.539062 2.871094 -9.445312 C 2.714844 -9.414062 2.65625 -9.230469 2.746094 -9.105469 C 2.902344 -8.828125 3.085938 -8.550781 3.242188 -8.304688 C 3.890625 -7.285156 3.980469 -6.234375 3.640625 -5.09375 C 3.609375 -4.9375 3.550781 -4.816406 3.488281 -4.691406 C 3.394531 -4.566406 3.332031 -4.445312 3.273438 -4.320312 C 3.117188 -4.074219 2.964844 -3.890625 2.777344 -3.796875 C 2.683594 -3.734375 2.625 -3.703125 2.53125 -3.703125 C 2.4375 -3.703125 2.347656 -3.734375 2.253906 -3.828125 C 2.066406 -3.980469 1.914062 -4.167969 1.757812 -4.445312 C 1.480469 -4.9375 1.390625 -5.492188 1.417969 -6.113281 C 1.511719 -8.054688 2.097656 -10 3.582031 -11.328125 C 3.671875 -11.421875 3.640625 -11.542969 3.550781 -11.574219 C 3.550781 -11.605469 3.519531 -11.605469 3.488281 -11.605469 C 3.332031 -11.667969 3.179688 -11.699219 2.992188 -11.699219 C 2.714844 -11.699219 2.46875 -11.605469 2.253906 -11.421875 C 0.894531 -10.371094 0.125 -8.023438 0.03125 -6.328125 L 0.03125 -6.019531 C 0.03125 -5.988281 0.03125 -5.925781 0.0625 -5.894531 C 0.0625 -5.832031 0.0625 -5.773438 0.0625 -5.742188 C 0.214844 -4.476562 0.894531 -3.640625 2.039062 -3.210938 C 2.128906 -3.179688 2.253906 -3.148438 2.375 -3.117188 C 2.46875 -3.085938 2.59375 -3.085938 2.683594 -3.054688 Z M 2.683594 -3.054688 "/></g></g></g><g fill="#3eddfb" fill-opacity="1"><g transform="translate(139.066784, 219.197009)"><g><path d="M 4.476562 -3.550781 C 4.816406 -3.550781 5.09375 -3.703125 5.246094 -3.980469 C 5.371094 -4.136719 5.464844 -4.257812 5.492188 -4.351562 C 6.265625 -5.804688 7.039062 -7.128906 7.871094 -8.582031 L 8.117188 -9.105469 C 8.210938 -9.320312 8.117188 -9.445312 7.902344 -9.476562 C 7.6875 -9.476562 7.5625 -9.414062 7.46875 -9.257812 C 6.699219 -7.871094 5.925781 -6.511719 5.09375 -5.183594 L 4.875 -4.90625 C 4.847656 -4.90625 4.847656 -4.90625 4.816406 -4.875 C 4.722656 -4.90625 4.691406 -4.9375 4.691406 -4.96875 L 4.691406 -5.402344 L 4.875 -6.914062 C 4.96875 -7.5625 5.03125 -8.210938 5.125 -8.796875 C 5.125 -8.921875 5.125 -9.042969 5.125 -9.136719 C 5.125 -9.230469 5.125 -9.351562 5.09375 -9.445312 C 5.09375 -9.570312 5.03125 -9.660156 4.875 -9.722656 C 4.722656 -9.816406 4.597656 -9.847656 4.507812 -9.847656 C 4.320312 -9.847656 4.167969 -9.753906 4.011719 -9.539062 C 3.921875 -9.382812 3.796875 -9.230469 3.703125 -9.042969 L 2.964844 -7.714844 C 2.714844 -7.222656 1.882812 -5.554688 1.417969 -5.277344 C 1.417969 -5.277344 1.390625 -5.277344 1.359375 -5.277344 L 1.328125 -5.308594 C 1.296875 -5.464844 1.265625 -5.554688 1.296875 -5.617188 C 1.328125 -5.894531 1.390625 -6.140625 1.417969 -6.421875 C 1.449219 -6.699219 1.511719 -6.976562 1.542969 -7.253906 C 1.605469 -7.59375 1.667969 -7.964844 1.757812 -8.332031 C 1.851562 -8.671875 1.914062 -9.042969 1.976562 -9.382812 C 2.007812 -9.476562 2.039062 -9.597656 2.039062 -9.722656 C 2.039062 -9.816406 2.039062 -9.9375 2.066406 -10.03125 C 2.066406 -10.1875 1.976562 -10.308594 1.820312 -10.371094 L 1.636719 -10.464844 C 1.417969 -10.464844 1.234375 -10.496094 1.109375 -10.277344 L 0.832031 -9.691406 C 0.308594 -8.242188 0.03125 -6.882812 -0.183594 -5.371094 C -0.214844 -4.96875 -0.214844 -4.660156 -0.125 -4.382812 C -0.03125 -4.136719 0.125 -3.980469 0.277344 -3.890625 C 0.464844 -3.765625 0.679688 -3.703125 0.894531 -3.703125 C 1.140625 -3.703125 1.328125 -3.796875 1.480469 -3.949219 L 1.820312 -4.414062 L 2.746094 -5.894531 C 2.839844 -6.050781 2.933594 -6.234375 3.054688 -6.390625 C 3.085938 -6.449219 3.148438 -6.511719 3.179688 -6.605469 C 3.210938 -6.667969 3.242188 -6.699219 3.332031 -6.667969 C 3.363281 -6.636719 3.394531 -6.605469 3.394531 -6.542969 C 3.394531 -6.449219 3.394531 -6.390625 3.363281 -6.328125 L 3.332031 -6.113281 C 3.300781 -5.894531 3.273438 -5.710938 3.273438 -5.523438 C 3.273438 -5.308594 3.273438 -5.09375 3.273438 -4.875 C 3.273438 -4.660156 3.332031 -4.445312 3.425781 -4.167969 C 3.640625 -3.765625 4.011719 -3.550781 4.476562 -3.550781 Z M 4.476562 -3.550781 "/></g></g></g><g fill="#3eddfb" fill-opacity="1"><g transform="translate(145.671501, 219.197009)"><g><path d="M 1.082031 -3.859375 C 1.296875 -3.859375 1.511719 -3.980469 1.699219 -4.230469 C 1.820312 -4.382812 1.914062 -4.566406 2.007812 -4.722656 C 2.097656 -4.9375 2.222656 -5.183594 2.316406 -5.402344 C 2.40625 -5.617188 2.5 -5.832031 2.59375 -6.050781 C 2.746094 -6.390625 2.902344 -6.699219 3.054688 -7.039062 C 3.179688 -7.347656 3.332031 -7.65625 3.488281 -7.964844 C 3.859375 -8.703125 4.753906 -10.371094 5.554688 -10.464844 C 5.585938 -10.464844 5.679688 -10.585938 5.679688 -10.617188 C 5.648438 -10.648438 5.617188 -10.710938 5.585938 -10.742188 L 5.214844 -10.832031 C 5.183594 -10.832031 5.15625 -10.832031 5.125 -10.863281 C 5.09375 -10.863281 5.0625 -10.863281 5.03125 -10.863281 C 4.445312 -10.863281 3.980469 -10.246094 3.703125 -9.785156 C 2.964844 -8.796875 2.4375 -7.625 1.945312 -6.480469 L 1.699219 -6.019531 C 1.667969 -5.988281 1.636719 -5.957031 1.605469 -5.925781 C 1.574219 -5.894531 1.542969 -5.894531 1.542969 -5.925781 C 1.511719 -6.019531 1.480469 -6.050781 1.480469 -6.082031 L 1.945312 -9.230469 C 1.976562 -9.539062 2.039062 -9.847656 2.097656 -10.1875 C 2.128906 -10.496094 2.160156 -10.863281 2.160156 -11.265625 L 2.160156 -11.667969 C 2.128906 -11.945312 1.789062 -12.007812 1.574219 -12.007812 C 1.511719 -11.945312 1.480469 -11.914062 1.480469 -11.914062 C 1.019531 -11.296875 0.183594 -6.296875 0.125 -5.183594 C 0.125 -5.0625 0.125 -4.9375 0.15625 -4.816406 C 0.15625 -4.691406 0.15625 -4.566406 0.15625 -4.445312 C 0.183594 -4.257812 0.277344 -4.105469 0.492188 -4.011719 C 0.554688 -3.980469 0.648438 -3.921875 0.773438 -3.890625 C 0.863281 -3.859375 0.957031 -3.859375 1.082031 -3.859375 Z M 1.082031 -3.859375 "/></g></g></g><g fill="#3eddfb" fill-opacity="1"><g transform="translate(151.165144, 219.197009)"><g/></g></g><g fill="#3eddfb" fill-opacity="1"><g transform="translate(159.189558, 219.197009)"><g><path d="M 5.554688 1.328125 C 5.648438 1.265625 5.710938 1.203125 5.710938 1.109375 C 5.679688 0.648438 5.710938 0.183594 5.742188 -0.277344 C 5.773438 -0.742188 5.832031 -1.203125 5.863281 -1.667969 C 5.894531 -1.882812 6.019531 -1.976562 6.171875 -2.007812 C 7.253906 -2.222656 8.148438 -2.714844 8.425781 -3.796875 C 8.613281 -4.476562 8.671875 -5.183594 8.613281 -5.894531 C 8.582031 -6.421875 8.273438 -6.757812 7.6875 -6.851562 C 7.65625 -6.882812 7.53125 -6.820312 7.5625 -6.730469 L 7.5625 -6.449219 C 7.625 -5.648438 7.5 -4.90625 7.191406 -4.199219 C 6.976562 -3.671875 6.328125 -3.054688 5.710938 -3.054688 C 5.617188 -3.054688 5.523438 -3.054688 5.492188 -3.085938 C 5.464844 -3.117188 5.371094 -3.117188 5.277344 -3.117188 C 5.15625 -3.117188 5.03125 -3.054688 4.875 -2.964844 C 4.847656 -2.933594 4.753906 -2.902344 4.597656 -2.902344 C 4.445312 -2.902344 4.320312 -2.933594 4.105469 -2.964844 C 3.765625 -3.054688 3.488281 -3.242188 3.273438 -3.519531 C 3.117188 -3.765625 3.023438 -3.980469 2.933594 -4.320312 C 2.839844 -4.785156 2.902344 -5.277344 3.054688 -5.804688 C 3.582031 -7.777344 5.277344 -9.445312 7.316406 -9.539062 C 7.40625 -9.570312 7.5 -9.570312 7.65625 -9.570312 C 7.746094 -9.597656 7.808594 -9.691406 7.808594 -9.816406 C 7.777344 -9.9375 7.6875 -10.0625 7.53125 -10.15625 C 7.285156 -10.371094 7.007812 -10.464844 6.730469 -10.585938 C 6.574219 -10.648438 6.421875 -10.710938 6.296875 -10.804688 C 6.140625 -10.863281 6.019531 -10.925781 5.863281 -10.988281 C 5.523438 -11.171875 5.308594 -11.453125 5.246094 -11.851562 C 5.183594 -12.039062 5.15625 -12.222656 5.15625 -12.4375 C 5.214844 -13.953125 5.894531 -15.09375 7.191406 -15.804688 L 7.59375 -15.988281 C 7.839844 -16.113281 8.085938 -16.113281 8.363281 -16.113281 C 8.582031 -16.082031 8.765625 -15.988281 8.921875 -15.835938 C 9.289062 -15.371094 9.476562 -14.9375 9.351562 -14.351562 C 9.289062 -13.890625 9.167969 -13.519531 9.011719 -13.242188 C 8.949219 -13.085938 8.890625 -12.964844 8.859375 -12.839844 C 8.859375 -12.839844 8.859375 -12.777344 8.859375 -12.6875 C 8.921875 -12.59375 9.042969 -12.53125 9.199219 -12.53125 C 9.289062 -12.53125 9.351562 -12.5625 9.382812 -12.59375 L 9.570312 -12.777344 C 9.847656 -13.273438 10.0625 -13.765625 10.1875 -14.261719 C 10.214844 -14.539062 10.214844 -14.753906 10.15625 -14.96875 C 9.96875 -15.617188 9.597656 -16.082031 9.011719 -16.421875 C 8.613281 -16.636719 8.210938 -16.761719 7.871094 -16.851562 C 7.65625 -16.882812 7.59375 -17.007812 7.625 -17.160156 C 7.625 -17.5 7.65625 -17.746094 7.6875 -18.085938 C 7.746094 -18.488281 7.777344 -18.859375 7.746094 -19.167969 C 7.714844 -19.507812 7.53125 -19.691406 7.191406 -19.753906 C 7.097656 -19.753906 7.039062 -19.722656 7.007812 -19.660156 C 6.945312 -19.628906 6.914062 -19.570312 6.914062 -19.476562 C 6.820312 -19.230469 6.789062 -18.953125 6.789062 -18.613281 L 6.699219 -17.039062 C 6.667969 -16.882812 6.605469 -16.761719 6.449219 -16.699219 C 6.328125 -16.605469 6.203125 -16.542969 6.082031 -16.480469 C 5.925781 -16.421875 5.804688 -16.359375 5.679688 -16.265625 C 4.566406 -15.617188 3.734375 -14.105469 3.890625 -12.625 C 3.980469 -11.882812 4.320312 -11.390625 4.847656 -10.925781 L 5.308594 -10.554688 C 5.402344 -10.464844 5.371094 -10.339844 5.277344 -10.308594 L 5.0625 -10.214844 C 3.457031 -9.660156 1.976562 -7.808594 1.636719 -6.113281 C 1.390625 -4.90625 1.726562 -3.921875 2.625 -3.085938 C 3.023438 -2.714844 3.488281 -2.5 3.980469 -2.285156 C 4.074219 -2.253906 4.167969 -2.222656 4.257812 -2.191406 C 4.351562 -2.160156 4.445312 -2.128906 4.539062 -2.097656 C 4.628906 -2.066406 4.722656 -2.007812 4.753906 -1.851562 L 4.753906 -0.617188 L 4.722656 -0.617188 L 4.722656 -0.183594 C 4.722656 -0.03125 4.722656 0.125 4.722656 0.277344 C 4.722656 0.402344 4.722656 0.554688 4.753906 0.710938 C 4.753906 0.773438 4.785156 0.863281 4.816406 0.988281 C 5.03125 1.265625 5.214844 1.328125 5.554688 1.328125 Z M 5.554688 1.328125 "/></g></g></g><g fill="#3eddfb" fill-opacity="1"><g transform="translate(170.917547, 219.197009)"><g/></g></g><g fill="#3eddfb" fill-opacity="1"><g transform="translate(178.941961, 219.197009)"><g><path d="M 0.0625 1.050781 C 0.585938 1.050781 0.925781 0.988281 1.265625 0.523438 L 1.449219 0.308594 C 2.039062 -0.523438 2.59375 -1.328125 3.054688 -2.191406 C 3.210938 -2.53125 3.363281 -2.808594 3.582031 -3.148438 L 4.597656 -4.90625 C 4.9375 -5.554688 5.308594 -6.171875 5.648438 -6.820312 C 5.988281 -7.4375 6.359375 -8.085938 6.699219 -8.734375 C 6.757812 -8.828125 6.820312 -8.949219 6.914062 -9.105469 C 6.945312 -9.257812 6.914062 -9.351562 6.789062 -9.414062 C 6.699219 -9.476562 6.636719 -9.507812 6.542969 -9.507812 C 6.480469 -9.507812 6.421875 -9.476562 6.390625 -9.445312 L 6.171875 -9.167969 L 5.15625 -7.316406 C 4.90625 -6.914062 4.691406 -6.511719 4.445312 -6.050781 C 3.980469 -5.277344 3.550781 -4.476562 3.117188 -3.703125 C 2.65625 -2.902344 2.191406 -2.097656 1.726562 -1.328125 C 1.480469 -0.925781 1.171875 -0.523438 0.894531 -0.15625 C 0.863281 -0.09375 0.800781 -0.03125 0.773438 0.0625 C 0.742188 0.125 0.679688 0.15625 0.585938 0.125 C 0.492188 0.09375 0.433594 0.03125 0.433594 -0.0625 C 0.402344 -0.15625 0.402344 -0.214844 0.371094 -0.308594 C 0.371094 -3.242188 1.140625 -6.082031 1.976562 -8.828125 C 2.066406 -9.011719 3.117188 -12.4375 3.273438 -12.59375 C 3.332031 -12.6875 3.394531 -12.746094 3.488281 -12.808594 C 4.074219 -13.117188 7.191406 -13.582031 7.964844 -13.671875 C 8.703125 -13.765625 9.507812 -13.859375 10.214844 -14.105469 C 10.277344 -14.136719 10.339844 -14.199219 10.371094 -14.289062 C 10.433594 -14.445312 10.402344 -14.628906 10.246094 -14.816406 C 10.1875 -14.878906 10.125 -14.90625 10.03125 -14.90625 L 8.394531 -14.597656 C 7.996094 -14.539062 7.625 -14.476562 7.222656 -14.414062 C 6.820312 -14.351562 6.449219 -14.289062 6.050781 -14.199219 C 5.710938 -14.167969 5.402344 -14.105469 5.09375 -14.042969 C 4.753906 -13.953125 4.445312 -13.890625 4.136719 -13.859375 C 4.074219 -13.828125 4.011719 -13.828125 3.921875 -13.828125 C 3.859375 -13.890625 3.828125 -13.921875 3.828125 -13.953125 C 3.828125 -14.011719 3.859375 -14.136719 3.890625 -14.289062 C 4.011719 -14.628906 4.136719 -15 4.257812 -15.339844 C 4.351562 -15.679688 4.476562 -16.019531 4.597656 -16.359375 C 4.628906 -16.511719 4.660156 -16.667969 4.660156 -16.789062 C 4.691406 -16.851562 4.660156 -16.914062 4.597656 -16.976562 C 4.507812 -17.128906 4.351562 -17.222656 4.199219 -17.222656 C 3.796875 -17.222656 3.519531 -16.328125 3.300781 -16.019531 C 2.964844 -15.371094 2.683594 -14.753906 2.40625 -14.042969 C 2.007812 -13.273438 2.191406 -13.457031 1.359375 -13.210938 C 1.328125 -13.179688 1.296875 -13.179688 1.234375 -13.179688 C 0.832031 -13.085938 0.464844 -12.964844 0.09375 -12.871094 C -0.277344 -12.777344 -0.648438 -12.65625 -1.019531 -12.5625 C -1.082031 -12.53125 -1.140625 -12.53125 -1.203125 -12.5 C -1.265625 -12.46875 -1.328125 -12.40625 -1.417969 -12.378906 C -1.449219 -12.347656 -1.449219 -12.316406 -1.449219 -12.253906 C -1.417969 -12.097656 -1.265625 -11.914062 -1.140625 -11.914062 C -1.050781 -11.882812 -0.988281 -11.882812 -0.925781 -11.882812 C -0.832031 -11.882812 -0.773438 -11.882812 -0.710938 -11.882812 C -0.492188 -11.914062 -0.308594 -11.976562 -0.125 -12.007812 C 0.0625 -12.039062 0.246094 -12.097656 0.433594 -12.128906 C 0.585938 -12.160156 0.742188 -12.222656 0.894531 -12.253906 C 1.050781 -12.285156 1.203125 -12.316406 1.359375 -12.347656 L 1.417969 -12.347656 C 1.636719 -12.347656 1.726562 -12.253906 1.636719 -12.070312 C 1.605469 -11.914062 1.542969 -11.761719 1.480469 -11.605469 C 1.417969 -11.453125 1.359375 -11.328125 1.328125 -11.171875 C 0.183594 -7.839844 -0.585938 -4.566406 -0.925781 -1.082031 C -0.925781 -0.679688 -0.894531 -0.308594 -0.800781 0.09375 C -0.679688 0.554688 -0.464844 0.957031 0.0625 1.050781 Z M 0.0625 1.050781 "/></g></g></g><g fill="#3eddfb" fill-opacity="1"><g transform="translate(184.250419, 219.197009)"><g><path d="M 1.082031 -3.859375 C 1.296875 -3.859375 1.511719 -3.980469 1.699219 -4.230469 C 1.820312 -4.382812 1.914062 -4.566406 2.007812 -4.722656 C 2.097656 -4.9375 2.222656 -5.183594 2.316406 -5.402344 C 2.40625 -5.617188 2.5 -5.832031 2.59375 -6.050781 C 2.746094 -6.390625 2.902344 -6.699219 3.054688 -7.039062 C 3.179688 -7.347656 3.332031 -7.65625 3.488281 -7.964844 C 3.859375 -8.703125 4.753906 -10.371094 5.554688 -10.464844 C 5.585938 -10.464844 5.679688 -10.585938 5.679688 -10.617188 C 5.648438 -10.648438 5.617188 -10.710938 5.585938 -10.742188 L 5.214844 -10.832031 C 5.183594 -10.832031 5.15625 -10.832031 5.125 -10.863281 C 5.09375 -10.863281 5.0625 -10.863281 5.03125 -10.863281 C 4.445312 -10.863281 3.980469 -10.246094 3.703125 -9.785156 C 2.964844 -8.796875 2.4375 -7.625 1.945312 -6.480469 L 1.699219 -6.019531 C 1.667969 -5.988281 1.636719 -5.957031 1.605469 -5.925781 C 1.574219 -5.894531 1.542969 -5.894531 1.542969 -5.925781 C 1.511719 -6.019531 1.480469 -6.050781 1.480469 -6.082031 L 1.945312 -9.230469 C 1.976562 -9.539062 2.039062 -9.847656 2.097656 -10.1875 C 2.128906 -10.496094 2.160156 -10.863281 2.160156 -11.265625 L 2.160156 -11.667969 C 2.128906 -11.945312 1.789062 -12.007812 1.574219 -12.007812 C 1.511719 -11.945312 1.480469 -11.914062 1.480469 -11.914062 C 1.019531 -11.296875 0.183594 -6.296875 0.125 -5.183594 C 0.125 -5.0625 0.125 -4.9375 0.15625 -4.816406 C 0.15625 -4.691406 0.15625 -4.566406 0.15625 -4.445312 C 0.183594 -4.257812 0.277344 -4.105469 0.492188 -4.011719 C 0.554688 -3.980469 0.648438 -3.921875 0.773438 -3.890625 C 0.863281 -3.859375 0.957031 -3.859375 1.082031 -3.859375 Z M 1.082031 -3.859375 "/></g></g></g><g fill="#3eddfb" fill-opacity="1"><g transform="translate(189.744062, 219.197009)"><g><path d="M 4.90625 -2.933594 C 5.214844 -2.933594 5.492188 -3.054688 5.773438 -3.300781 C 6.019531 -3.519531 6.234375 -3.734375 6.449219 -3.980469 C 6.757812 -4.382812 7.066406 -4.847656 7.40625 -5.308594 L 8.703125 -7.347656 C 8.859375 -7.5625 8.980469 -7.808594 9.136719 -8.054688 C 9.257812 -8.304688 9.382812 -8.550781 9.539062 -8.796875 C 9.628906 -8.949219 9.660156 -9.105469 9.691406 -9.199219 C 9.691406 -9.199219 9.691406 -9.230469 9.691406 -9.320312 C 9.660156 -9.476562 9.539062 -9.539062 9.320312 -9.539062 C 9.230469 -9.539062 9.167969 -9.507812 9.136719 -9.445312 C 9.011719 -9.320312 8.921875 -9.167969 8.859375 -9.011719 C 8.210938 -7.777344 6.542969 -5.15625 5.554688 -4.167969 C 5.464844 -4.074219 5.371094 -4.011719 5.277344 -3.949219 C 5.183594 -3.859375 5.09375 -3.796875 4.96875 -3.734375 C 4.9375 -3.734375 4.9375 -3.734375 4.9375 -3.734375 C 4.9375 -3.703125 4.9375 -3.703125 4.90625 -3.703125 C 4.816406 -3.703125 4.753906 -3.765625 4.691406 -3.859375 C 4.597656 -4.199219 4.691406 -4.539062 4.722656 -4.875 C 4.9375 -5.894531 5.125 -6.851562 5.492188 -7.808594 C 5.742188 -8.394531 5.988281 -8.980469 6.203125 -9.570312 C 6.359375 -9.785156 6.851562 -11.171875 6.851562 -11.328125 C 6.882812 -11.480469 6.820312 -11.574219 6.699219 -11.636719 C 6.605469 -11.730469 6.511719 -11.761719 6.390625 -11.761719 C 6.234375 -11.761719 6.113281 -11.699219 6.019531 -11.542969 C 5.894531 -11.328125 5.773438 -11.171875 5.648438 -11.019531 L 4.722656 -9.691406 C 4.628906 -9.597656 4.566406 -9.539062 4.507812 -9.507812 C 4.507812 -9.507812 4.476562 -9.507812 4.382812 -9.507812 L 4.230469 -9.847656 C 3.859375 -10.433594 3.332031 -10.710938 2.683594 -10.710938 C 2.285156 -10.710938 1.882812 -10.585938 1.511719 -10.308594 C 1.265625 -10.09375 1.050781 -9.878906 0.832031 -9.539062 C 0.710938 -9.320312 0.585938 -9.136719 0.464844 -8.949219 C 0.339844 -8.734375 0.214844 -8.519531 0.09375 -8.304688 C -0.277344 -7.59375 -0.464844 -6.820312 -0.464844 -5.988281 C -0.371094 -5.246094 0.183594 -4.847656 0.894531 -4.753906 L 1.082031 -4.753906 C 1.296875 -4.753906 1.480469 -4.816406 1.605469 -4.90625 C 2.191406 -5.402344 2.65625 -5.863281 3.148438 -6.449219 C 3.242188 -6.542969 3.300781 -6.605469 3.394531 -6.699219 L 3.457031 -6.699219 C 3.519531 -6.636719 3.550781 -6.605469 3.550781 -6.605469 C 3.550781 -6.574219 3.550781 -6.511719 3.550781 -6.480469 C 3.519531 -6.421875 3.519531 -6.359375 3.519531 -6.328125 C 3.488281 -6.082031 3.425781 -5.832031 3.394531 -5.585938 C 3.332031 -5.339844 3.300781 -5.09375 3.273438 -4.816406 C 3.273438 -3.859375 3.828125 -2.933594 4.90625 -2.933594 Z M 1.082031 -5.804688 C 0.988281 -5.832031 0.957031 -5.957031 0.957031 -6.113281 C 1.109375 -7.222656 2.253906 -10.125 3.242188 -10.125 C 3.363281 -10.125 3.457031 -10.0625 3.519531 -9.9375 C 3.609375 -9.816406 3.640625 -9.722656 3.671875 -9.660156 C 3.703125 -9.445312 3.828125 -9.289062 4.074219 -9.199219 C 4.167969 -9.167969 4.199219 -9.074219 4.167969 -8.949219 C 4.167969 -8.949219 4.136719 -8.921875 4.105469 -8.890625 C 3.394531 -7.933594 2.714844 -7.097656 1.851562 -6.265625 C 1.757812 -6.171875 1.667969 -6.113281 1.574219 -6.050781 C 1.480469 -5.988281 1.359375 -5.925781 1.265625 -5.832031 C 1.234375 -5.804688 1.171875 -5.804688 1.082031 -5.804688 Z M 1.082031 -5.804688 "/></g></g></g><g fill="#3eddfb" fill-opacity="1"><g transform="translate(197.891928, 219.197009)"><g><path d="M 1.542969 -1.851562 C 2.007812 -1.851562 2.375 -2.5 2.53125 -2.871094 C 2.683594 -3.179688 2.839844 -3.488281 2.992188 -3.828125 C 3.117188 -4.136719 3.242188 -4.445312 3.394531 -4.785156 C 3.796875 -5.804688 4.167969 -6.851562 4.507812 -7.871094 C 4.816406 -8.890625 5.15625 -9.9375 5.492188 -10.957031 C 5.523438 -11.113281 5.585938 -11.296875 5.617188 -11.542969 C 5.617188 -11.636719 5.554688 -11.730469 5.464844 -11.761719 C 5.402344 -11.789062 5.308594 -11.820312 5.214844 -11.820312 C 4.875 -11.820312 4.816406 -11.359375 4.722656 -11.113281 C 4.507812 -10.464844 4.289062 -9.816406 4.074219 -9.167969 C 3.859375 -8.519531 3.609375 -7.839844 3.394531 -7.191406 C 3.023438 -6.050781 2.625 -4.96875 2.097656 -3.890625 C 2.007812 -3.734375 1.945312 -3.582031 1.851562 -3.457031 C 1.820312 -3.425781 1.789062 -3.425781 1.699219 -3.425781 C 1.699219 -3.425781 1.699219 -3.457031 1.667969 -3.488281 C 1.636719 -3.609375 1.605469 -3.703125 1.605469 -3.765625 C 1.605469 -5.492188 1.726562 -7.222656 1.945312 -8.949219 L 2.128906 -10.617188 C 2.128906 -10.742188 2.128906 -10.832031 2.097656 -10.894531 C 2.097656 -11.019531 2.039062 -11.113281 1.914062 -11.203125 L 1.636719 -11.296875 C 1.417969 -11.296875 1.296875 -11.296875 1.203125 -11.082031 L 0.925781 -10.1875 C 0.585938 -8.703125 0.339844 -7.253906 0.308594 -5.679688 L 0.308594 -5.183594 C 0.277344 -4.847656 0.277344 -4.507812 0.277344 -4.199219 C 0.277344 -3.859375 0.308594 -3.550781 0.339844 -3.210938 C 0.371094 -2.964844 0.402344 -2.746094 0.492188 -2.5 C 0.648438 -2.039062 1.082031 -1.851562 1.542969 -1.851562 Z M 1.542969 -1.851562 "/></g></g></g><g fill="#3eddfb" fill-opacity="1"><g transform="translate(203.66333, 219.197009)"><g><path d="M 1.019531 -2.5 C 1.789062 -2.5 2.347656 -3.054688 2.808594 -3.582031 C 3.300781 -4.199219 3.765625 -4.847656 4.230469 -5.492188 C 4.566406 -6.019531 4.9375 -6.574219 5.277344 -7.097656 C 5.617188 -7.625 5.957031 -8.148438 6.296875 -8.671875 C 6.328125 -8.765625 6.421875 -8.890625 6.511719 -9.042969 C 6.605469 -9.199219 6.667969 -9.351562 6.667969 -9.445312 C 6.667969 -9.476562 6.636719 -9.539062 6.605469 -9.570312 C 6.542969 -9.660156 6.449219 -9.691406 6.328125 -9.691406 C 6.234375 -9.691406 6.140625 -9.660156 6.082031 -9.597656 C 6.050781 -9.570312 6.019531 -9.507812 6.019531 -9.476562 C 5.988281 -9.445312 5.957031 -9.382812 5.925781 -9.351562 L 4.074219 -6.574219 C 3.703125 -5.957031 1.820312 -3.300781 1.140625 -3.300781 C 1.019531 -3.300781 0.925781 -3.425781 0.894531 -3.640625 L 0.894531 -3.859375 C 0.863281 -4.597656 0.925781 -5.371094 1.050781 -6.113281 L 1.234375 -6.882812 C 1.296875 -7.097656 1.417969 -7.222656 1.605469 -7.253906 C 1.757812 -7.285156 1.882812 -7.347656 2.007812 -7.375 C 2.128906 -7.40625 2.253906 -7.4375 2.375 -7.5 C 3.210938 -7.996094 4.074219 -8.734375 4.351562 -9.722656 C 4.566406 -10.371094 4.382812 -10.804688 3.765625 -11.082031 C 3.488281 -11.234375 3.273438 -11.234375 2.933594 -11.234375 C 2.683594 -11.234375 2.4375 -11.140625 2.160156 -10.988281 C 1.914062 -10.804688 1.726562 -10.617188 1.574219 -10.464844 C 1.203125 -10.09375 0.894531 -9.628906 0.648438 -9.167969 C -0.183594 -7.46875 -0.554688 -5.710938 -0.433594 -3.890625 L -0.339844 -3.394531 C -0.183594 -2.777344 0.433594 -2.5 1.019531 -2.5 Z M 1.699219 -7.902344 C 1.605469 -7.933594 1.605469 -7.996094 1.636719 -8.085938 C 1.820312 -8.703125 2.746094 -10.585938 3.425781 -10.585938 C 3.550781 -10.585938 3.640625 -10.523438 3.671875 -10.371094 L 3.671875 -10.308594 C 3.671875 -9.445312 2.625 -8.210938 1.820312 -7.902344 C 1.789062 -7.871094 1.726562 -7.871094 1.699219 -7.902344 Z M 1.699219 -7.902344 "/></g></g></g><g fill="#3eddfb" fill-opacity="1"><g transform="translate(208.786616, 219.197009)"><g><path d="M 1.574219 -0.988281 C 2.53125 -0.988281 3.363281 -2.347656 3.703125 -3.210938 C 4.289062 -4.351562 4.847656 -5.554688 5.308594 -6.789062 C 5.433594 -7.128906 5.554688 -7.4375 5.710938 -7.777344 C 5.863281 -8.117188 5.988281 -8.457031 6.140625 -8.796875 C 6.171875 -8.890625 6.234375 -8.980469 6.265625 -9.074219 C 6.296875 -9.136719 6.328125 -9.230469 6.359375 -9.320312 C 6.390625 -9.414062 6.328125 -9.476562 6.234375 -9.570312 C 6.171875 -9.597656 6.082031 -9.628906 5.988281 -9.628906 C 5.523438 -9.628906 5.246094 -8.890625 5.125 -8.550781 C 5.03125 -8.332031 4.9375 -8.085938 4.847656 -7.871094 C 4.753906 -7.65625 4.691406 -7.40625 4.597656 -7.191406 C 3.980469 -5.554688 3.085938 -3.363281 2.007812 -2.007812 C 1.914062 -1.914062 1.851562 -1.851562 1.789062 -1.820312 C 1.726562 -1.820312 1.699219 -1.820312 1.667969 -1.851562 C 1.636719 -1.882812 1.605469 -1.914062 1.605469 -1.945312 C 1.605469 -1.976562 1.605469 -2.007812 1.574219 -2.039062 C 1.449219 -2.375 1.449219 -2.65625 1.449219 -2.992188 C 1.328125 -5.214844 1.574219 -7.347656 2.039062 -9.476562 C 2.066406 -9.691406 2.191406 -9.847656 2.316406 -10.0625 C 3.582031 -11.636719 6.050781 -14.9375 6.511719 -16.945312 C 6.574219 -17.285156 6.605469 -17.625 6.574219 -17.902344 C 6.480469 -18.457031 6.113281 -18.765625 5.523438 -18.828125 C 4.566406 -18.828125 4.167969 -18.304688 3.671875 -17.59375 C 1.480469 -14.414062 0.09375 -8.023438 0.09375 -4.042969 C 0.0625 -3.582031 0.125 -2.964844 0.214844 -2.316406 C 0.214844 -1.605469 0.554688 -1.140625 1.265625 -1.019531 C 1.328125 -0.988281 1.417969 -0.988281 1.574219 -0.988281 Z M 2.777344 -12.160156 L 2.746094 -12.191406 C 2.746094 -12.222656 2.746094 -12.285156 2.746094 -12.316406 C 2.714844 -12.347656 2.714844 -12.378906 2.746094 -12.40625 C 3.273438 -14.382812 3.949219 -16.144531 5.15625 -17.777344 C 5.246094 -17.871094 5.492188 -18.085938 5.585938 -18.085938 C 5.648438 -18.085938 5.710938 -18.054688 5.742188 -17.964844 L 5.742188 -17.6875 C 5.679688 -16.328125 3.890625 -13.425781 3.054688 -12.378906 C 2.992188 -12.285156 2.933594 -12.222656 2.839844 -12.160156 Z M 2.777344 -12.160156 "/></g></g></g></svg>